<svg width="20" height="20" viewBox="0 0 60 60" fill="none" xmlns="http://www.w3.org/2000/svg" xmlns:xlink="http://www.w3.org/1999/xlink">
<path d="M30,0C13.425,0 0,13.425 0,30C0,43.275 8.587,54.487 20.513,58.463C22.013,58.725 22.575,57.825 22.575,57.038C22.575,56.325 22.538,53.963 22.538,51.45C15,52.838 13.05,49.612 12.45,47.925C12.113,47.062 10.65,44.4 9.375,43.688C8.325,43.125 6.825,41.737 9.337,41.7C11.7,41.663 13.387,43.875 13.95,44.775C16.65,49.312 20.962,48.037 22.688,47.25C22.95,45.3 23.738,43.987 24.6,43.237C17.925,42.487 10.95,39.9 10.95,28.425C10.95,25.163 12.113,22.463 14.025,20.363C13.725,19.612 12.675,16.537 14.325,12.412C14.325,12.412 16.837,11.625 22.575,15.487C24.975,14.813 27.525,14.475 30.075,14.475C32.625,14.475 35.175,14.813 37.575,15.487C43.312,11.588 45.825,12.412 45.825,12.412C47.475,16.537 46.425,19.612 46.125,20.363C48.038,22.463 49.2,25.125 49.2,28.425C49.2,39.938 42.188,42.487 35.513,43.237C36.6,44.175 37.538,45.975 37.538,48.787C37.538,52.8 37.5,56.025 37.5,57.038C37.5,57.825 38.062,58.763 39.562,58.463C45.518,56.452 50.693,52.624 54.359,47.518C58.025,42.413 59.998,36.286 60,30C60,13.425 46.575,0 30,0Z" clip-rule="evenodd" fill-rule="evenodd" fill="#666666"/>
</svg>
