<svg width="15" height="15" viewBox="0 0 34 34" fill="none" xmlns="http://www.w3.org/2000/svg" xmlns:xlink="http://www.w3.org/1999/xlink">
<path d="M17.395,14.605C18.046,15.256 19.101,15.256 19.752,14.605C20.403,13.954 20.403,12.899 19.752,12.248L17.395,14.605ZM8.28,13.427L7.102,12.248L7.102,12.248L8.28,13.427ZM3.132,18.573L1.953,17.395L1.953,17.395L3.132,18.573ZM1,23.721L-0.667,23.721L1,23.721ZM13.427,28.868L14.605,30.047L14.605,30.047L13.427,28.868ZM17.179,27.473C17.829,26.823 17.829,25.767 17.179,25.116C16.528,24.466 15.472,24.466 14.821,25.116L17.179,27.473ZM19.752,12.248C18.074,10.571 15.799,9.629 13.427,9.629L13.427,12.962C14.915,12.962 16.342,13.553 17.395,14.605L19.752,12.248ZM13.427,9.629C11.055,9.629 8.779,10.571 7.102,12.248L9.458,14.605C10.511,13.553 11.938,12.962 13.427,12.962L13.427,9.629ZM7.102,12.248L1.953,17.395L4.31,19.752L9.458,14.605L7.102,12.248ZM1.953,17.395C0.275,19.073 -0.667,21.348 -0.667,23.721L2.666,23.721C2.666,22.232 3.258,20.804 4.31,19.752L1.953,17.395ZM-0.667,23.721C-0.667,26.093 0.275,28.369 1.953,30.047L4.31,27.69C3.258,26.637 2.666,25.209 2.666,23.721L-0.667,23.721ZM1.953,30.047C3.631,31.725 5.906,32.667 8.279,32.667L8.279,29.334C6.791,29.334 5.363,28.742 4.31,27.69L1.953,30.047ZM8.279,32.667C10.652,32.667 12.927,31.725 14.605,30.047L12.248,27.69C11.196,28.742 9.768,29.334 8.279,29.334L8.279,32.667ZM14.605,30.047L17.179,27.473L14.821,25.116L12.248,27.69L14.605,30.047Z" fill="#000000"/>
<path d="M14.605,17.395C13.954,16.744 12.899,16.744 12.248,17.395C11.597,18.046 11.597,19.101 12.248,19.752L14.605,17.395ZM23.72,18.573L24.898,19.752L24.898,19.752L23.72,18.573ZM28.868,13.427L30.047,14.605L30.047,14.605L28.868,13.427ZM31,8.279L32.667,8.279L31,8.279ZM23.721,1L23.721,-0.667L23.721,1ZM18.573,3.132L17.395,1.953L17.395,1.953L18.573,3.132ZM14.821,4.526C14.171,5.177 14.171,6.233 14.821,6.884C15.472,7.534 16.528,7.534 17.178,6.884L14.821,4.526ZM12.248,19.752C13.926,21.429 16.201,22.371 18.573,22.371L18.573,19.038C17.085,19.038 15.658,18.447 14.605,17.395L12.248,19.752ZM18.573,22.371C20.945,22.371 23.221,21.429 24.898,19.752L22.542,17.395C21.489,18.447 20.062,19.038 18.573,19.038L18.573,22.371ZM24.898,19.752L30.047,14.605L27.69,12.248L22.542,17.395L24.898,19.752ZM30.047,14.605C31.725,12.927 32.667,10.652 32.667,8.279L29.334,8.279C29.334,9.768 28.742,11.196 27.69,12.248L30.047,14.605ZM32.667,8.279C32.667,5.906 31.725,3.631 30.047,1.953L27.69,4.31C28.742,5.363 29.334,6.791 29.334,8.279L32.667,8.279ZM30.047,1.953C28.369,0.275 26.094,-0.667 23.721,-0.667L23.721,2.666C25.209,2.666 26.637,3.258 27.69,4.31L30.047,1.953ZM23.721,-0.667C21.348,-0.667 19.073,0.275 17.395,1.953L19.752,4.31C20.804,3.258 22.232,2.666 23.721,2.666L23.721,-0.667ZM17.395,1.953L14.821,4.526L17.178,6.884L19.752,4.31L17.395,1.953Z" fill="#000000"/>
</svg>
