<svg  width="20" height="20" viewBox="0 0 58 58" fill="none" xmlns="http://www.w3.org/2000/svg" xmlns:xlink="http://www.w3.org/1999/xlink">
<path d="M28,-0.8C12.094,-0.8 -0.8,12.094 -0.8,28C-0.8,43.906 12.094,56.8 28,56.8C43.906,56.8 56.8,43.906 56.8,28C56.8,12.094 43.906,-0.8 28,-0.8ZM20.95,39.937L15.118,39.937L15.118,21.169L20.95,21.169L20.95,39.937ZM17.998,18.865C16.156,18.865 14.965,17.56 14.965,15.946C14.965,14.299 16.192,13.033 18.073,13.033C19.954,13.033 21.106,14.299 21.142,15.946C21.142,17.56 19.954,18.865 17.998,18.865ZM42.25,39.937L36.418,39.937L36.418,29.536C36.418,27.115 35.572,25.471 33.463,25.471C31.852,25.471 30.895,26.584 30.472,27.655C30.316,28.036 30.277,28.576 30.277,29.113L30.277,39.934L24.442,39.934L24.442,27.154C24.442,24.811 24.367,22.852 24.289,21.166L29.356,21.166L29.623,23.773L29.74,23.773C30.508,22.549 32.389,20.743 35.536,20.743C39.373,20.743 42.25,23.314 42.25,28.84L42.25,39.937L42.25,39.937Z" fill="#666666"/>
</svg>
