<svg  width="20" height="20" viewBox="0 0 60 60" fill="none" xmlns="http://www.w3.org/2000/svg" xmlns:xlink="http://www.w3.org/1999/xlink">
<path d="M29.75,-0.25C13.183,-0.25 -0.25,13.183 -0.25,29.75C-0.25,46.317 13.183,59.75 29.75,59.75C46.317,59.75 59.75,46.317 59.75,29.75C59.75,13.183 46.317,-0.25 29.75,-0.25ZM44.167,22.364C44.187,22.679 44.187,23.007 44.187,23.328C44.187,33.158 36.701,44.482 23.02,44.482C18.801,44.482 14.891,43.257 11.596,41.147C12.199,41.214 12.775,41.241 13.391,41.241C16.873,41.241 20.074,40.062 22.625,38.067C19.357,38 16.612,35.857 15.674,32.911C16.819,33.078 17.85,33.078 19.029,32.777C17.346,32.435 15.834,31.521 14.749,30.191C13.664,28.86 13.072,27.195 13.076,25.478L13.076,25.384C14.06,25.94 15.219,26.281 16.431,26.328C15.412,25.649 14.576,24.729 13.998,23.65C13.42,22.57 13.117,21.365 13.116,20.141C13.116,18.754 13.478,17.489 14.127,16.391C15.995,18.69 18.325,20.57 20.967,21.91C23.609,23.249 26.504,24.018 29.462,24.165C28.411,19.109 32.188,15.018 36.728,15.018C38.871,15.018 40.799,15.915 42.158,17.362C43.839,17.047 45.446,16.417 46.879,15.574C46.324,17.295 45.158,18.748 43.612,19.665C45.112,19.504 46.558,19.089 47.897,18.507C46.886,19.993 45.621,21.312 44.167,22.364L44.167,22.364Z" fill="#666666"/>
</svg>
